<?xml version="1.0" encoding="utf-8"?>
<!-- Generator: Adobe Illustrator 16.0.4, SVG Export Plug-In . SVG Version: 6.00 Build 0)  -->
<!DOCTYPE svg PUBLIC "-//W3C//DTD SVG 1.1//EN" "http://www.w3.org/Graphics/SVG/1.1/DTD/svg11.dtd">
<svg version="1.1" id="Calque_1" xmlns="http://www.w3.org/2000/svg" xmlns:xlink="http://www.w3.org/1999/xlink" x="0px" y="0px"
	 width="942px" height="476px" viewBox="0 0 942 476" enable-background="new 0 0 942 476" xml:space="preserve">
<path id="play" fill="#F5A623" d="M590.951,352.141c13.602,0,22.48-7.27,22.48-18.043v-0.227c0-11.723-8.771-17.812-22.004-17.812
	h-20.719v36.082H590.951z M561.455,312.195c0-2.562,2.104-4.668,4.559-4.668h26.113c18.506,0,30.691,9.82,30.691,25.98v0.238
	c0,17.688-14.746,26.824-32.211,26.824h-19.898v24.805c0,2.602-2.109,4.695-4.695,4.695c-2.455,0-4.559-2.094-4.559-4.695V312.195z
	 M639.67,311.609c0-2.562,2.109-4.672,4.566-4.672c2.582,0,4.686,2.109,4.686,4.672v69.336h42.512c2.348,0,4.217,1.977,4.217,4.32
	c0,2.352-1.869,4.223-4.217,4.223h-47.197c-2.457,0-4.566-2.102-4.566-4.688V311.609z M817.305,357.277l-30.453-42.629
	c-0.588-0.93-1.045-1.977-1.045-3.148c0-2.457,2.217-4.559,4.803-4.559c1.979,0,3.279,1.145,4.455,2.801l27.043,38.988
	l27.279-38.988c1.178-1.656,2.348-2.801,4.35-2.801c2.562,0,4.559,2.102,4.559,4.559c0,1.172-0.717,2.457-1.301,3.391
	l-30.326,42.156v28.328c0,2.598-2.105,4.695-4.695,4.695c-2.561,0-4.668-2.098-4.668-4.695V357.277z M727.383,359.395l18.852-41.922
	l18.857,41.922H727.383z M785.684,383.293l-33.256-72.621c-1.045-2.586-2.914-4.105-5.736-4.105h-0.457
	c-2.932,0-4.689,1.52-5.865,4.105l-22.289,48.762h-12.145c-2.293,0-4.156,1.965-4.156,4.148c0,2.281,1.863,4.246,4.156,4.246h8.291
	l-7.113,15.57c-0.479,0.949-0.586,1.762-0.586,2.461c0,2.344,1.865,4.211,4.215,4.211c2.107,0,3.627-1.176,4.453-3.148l8.557-19.098
	h44.969l8.531,18.844c0.826,1.895,2.352,3.402,4.588,3.402c2.453,0,4.428-1.977,4.428-4.441
	C786.268,384.934,786.053,384.098,785.684,383.293"/>
<path id="nomad" fill="#1A2435" d="M153.041,307.527v81.961h-7.385l-52.936-67.215v67.215h-9.016v-81.961h8.664l51.66,65.688
	v-65.688H153.041z M246.596,348.73c0,18.617-13.338,33.605-32.086,33.605c-18.744,0-32.322-15.203-32.322-33.836v-0.23
	c0-18.629,13.361-33.617,32.084-33.617c18.746,0,32.324,15.23,32.324,33.848V348.73 M172.586,348.73
	c0,22.613,16.75,42.152,41.686,42.152c24.961,0,41.924-19.789,41.924-42.383v-0.23c0-22.602-16.748-42.156-41.686-42.156
	c-24.934,0-41.924,19.789-41.924,42.387V348.73 M344.838,307.527l-29.871,44.723l-29.844-44.723h-9.385v81.961h9.016v-66.285
	l29.869,43.812h0.479l29.844-43.941v66.414h9.256v-81.961H344.838z M479.133,380.949v-64.883h19.201
	c20.723,0,33.975,14.285,33.975,32.434v0.23c0,18.156-13.252,32.219-33.975,32.219H479.133z M469.879,389.484h28.455
	c25.764,0,43.58-17.922,43.58-40.984v-0.234c0-23.059-17.816-40.738-43.58-40.738h-28.455V389.484z M393.184,359.508h37.365
	l-18.619-41.793L393.184,359.508z M416.383,306.941l37.365,82.547h-9.971l-9.602-21.664h-44.619l-9.707,21.664h-9.496l9.799-21.66
	h-13.174v-8.395h16.986l23.752-52.492H416.383z"/>
<polygon id="sigle-gch" fill="#1A2435" points="408.959,85.102 408.959,221.789 460.527,221.789 460.527,191.508 451.516,191.508 
	451.516,212.777 417.971,212.777 417.971,94.109 444.785,94.109 498.953,161.922 505.977,156.293 449.111,85.102 "/>
<path id="sigle-drt" fill="#F5A623" d="M544.898,177.211h-8.822v-66.312c0-14.211-11.586-25.797-25.791-25.797
	c-14.211,0-25.775,11.586-25.775,25.797c0,2.492,2.014,4.504,4.506,4.504s4.506-2.012,4.506-4.504
	c0-9.258,7.508-16.789,16.764-16.789c9.248,0,16.783,7.531,16.783,16.789v66.312h-8.85c-2.467,0-4.504,2.012-4.504,4.504
	s2.037,4.504,4.504,4.504h8.85v9.793c0,9.254-7.535,16.762-16.787,16.762c-0.004,0-0.004,0-0.012,0
	c-4.396-0.004-8.52-1.676-11.66-4.746l-51.707-64.703c-1.564-1.949-4.395-2.25-6.324-0.695c-1.953,1.535-2.258,4.375-0.723,6.328
	l51.865,64.902l0.34,0.383c4.859,4.859,11.35,7.539,18.221,7.543c0.035,0,0.047-0.004,0.055-0.004
	c14.195-0.039,25.74-11.566,25.74-25.77v-9.793h8.822c2.492,0,4.506-2.012,4.506-4.504S547.391,177.211,544.898,177.211"/>
</svg>
